<?xml version="1.0" encoding="UTF-8" standalone="no"?>
<!DOCTYPE svg PUBLIC "-//W3C//DTD SVG 1.1//EN" "http://www.w3.org/Graphics/SVG/1.1/DTD/svg11.dtd">
<!-- Created with Vectornator (http://vectornator.io/) -->
<svg height="100%" stroke-miterlimit="10" style="fill-rule:nonzero;clip-rule:evenodd;stroke-linecap:round;stroke-linejoin:round;" version="1.1" viewBox="0 0 792 612" width="100%" xml:space="preserve" xmlns="http://www.w3.org/2000/svg" xmlns:vectornator="http://vectornator.io" xmlns:xlink="http://www.w3.org/1999/xlink">
<defs/>
<g id="Anteriores" vectornator:layerName="Anteriores" visibility="hidden">
<g opacity="1" vectornator:layerName="Grupo 3">
<path d="M176.955 477.836C168.18 505.38 175.087 534.165 192.693 554.549C202.02 565.347 214.35 573.788 228.942 578.437C271.077 591.861 316.118 568.586 329.542 526.45C342.966 484.315 319.691 439.274 277.556 425.85C235.42 412.425 190.38 435.7 176.955 477.836Z" fill="none" opacity="1" stroke="#0099a2" stroke-linecap="butt" stroke-linejoin="round" stroke-width="14.0427" vectornator:layerName="Óvalo 1"/>
<g opacity="1" vectornator:layerName="Curva 1">
<path d="M283.219 529.531C282.766 529.458 282.276 529.554 281.875 529.844C277.647 532.898 273.222 535.682 268.406 537.719C265.054 539.136 261.541 540.183 257.938 540.719C245.815 542.52 234.65 538.048 224.438 531.906C223.635 531.423 222.608 531.666 222.125 532.469C221.642 533.271 221.885 534.33 222.688 534.812C233.977 541.61 246.361 546.338 259.719 544C263.183 543.394 266.54 542.36 269.781 541C274.851 538.873 279.519 535.955 283.969 532.75C284.771 532.171 284.954 531.052 284.375 530.25C284.086 529.849 283.671 529.605 283.219 529.531Z" fill="#0099a2" stroke="none"/>
</g>
<path d="M273.815 425.343C253.705 418.027 227.492 429.343 228.165 453.124C228.645 470.094 240.527 477.751 251.651 478.785C264.459 479.974 275.372 470.084 275.119 458.589C274.835 445.71 261.654 438.24 251.361 444.136C243.77 448.484 243.361 459.213 249.766 464.287C256.821 469.876 264.62 463.834 261.944 457.908" fill="none" opacity="1" stroke="#0099a2" stroke-linecap="round" stroke-linejoin="round" stroke-width="6.84131" vectornator:layerName="Curva 2"/>
<path d="M221.356 509.185C221.356 503.954 224.493 499.714 228.362 499.714C232.232 499.714 235.369 503.954 235.369 509.185C235.369 514.416 232.232 518.656 228.362 518.656C224.493 518.656 221.356 514.416 221.356 509.185Z" fill="#0099a2" fill-rule="nonzero" opacity="1" stroke="none" vectornator:layerName="Óvalo 2"/>
<path d="M271.055 509.185C271.055 503.954 274.192 499.714 278.061 499.714C281.931 499.714 285.068 503.954 285.068 509.185C285.068 514.416 281.931 518.656 278.061 518.656C274.192 518.656 271.055 514.416 271.055 509.185Z" fill="#0099a2" fill-rule="nonzero" opacity="1" stroke="none" vectornator:layerName="Óvalo 3"/>
<g opacity="1" vectornator:layerName="Curva 3">
<path d="M275.437 529.223C263.471 528.518 251.116 549.345 232.881 548.521C223.407 548.093 221.173 531.659 231.584 530.104C251.148 527.181 250.852 548.614 275.964 547.759C284.011 547.485 286.765 529.89 275.437 529.223Z" fill="#ffdb00" fill-rule="nonzero" stroke="none"/>
<path d="M275.562 527.688C275.469 527.679 275.403 527.742 275.312 527.75C272.506 527.971 273.199 527.803 272.125 528.031C267.544 529.005 263.556 531.954 259.844 534.656C258.086 535.935 256.281 537.216 254.5 538.5C249.589 534.32 244.966 529.613 238.312 528.562C236.432 528.266 234.516 528.24 232.625 528.438C228.655 528.852 225.466 530.567 223.969 534.438C223.599 535.394 223.376 536.417 223.281 537.438C223.167 538.667 223.228 539.915 223.469 541.125C224.288 545.236 227.159 549.021 231.438 549.844C234.132 550.362 237.138 549.958 239.781 549.344C245.125 548.102 249.764 545.33 254.219 542.25C259.764 546.575 265.723 548.992 272.875 549.281C274.111 549.331 275.424 549.402 276.656 549.25C280.018 548.835 282.4 546.033 283.562 543.031C285.054 539.178 284.316 540.245 281.25 536.594C281.689 539.868 280.616 543.666 278.219 545.406C276.7 546.509 274.787 546.29 273 546.219C267.151 545.985 261.632 544.121 256.969 540.562C256.905 540.514 256.845 540.456 256.781 540.406C258.908 538.863 261.07 537.339 263.188 535.844C265.713 534.06 263.334 535.793 275.281 530.75C275.291 530.751 275.302 530.749 275.312 530.75C277.058 531.485 277.526 531.584 278 531.688C277.581 531.009 277.216 530.45 276.75 529.625C276.792 529.494 276.903 529.395 276.906 529.25C276.924 528.516 276.358 527.967 275.656 527.844C275.618 527.771 275.601 527.761 275.562 527.688ZM278 531.688C279.258 533.723 280.394 535.575 281.25 536.594C281.045 535.064 280.589 533.618 279.625 532.594C278.928 531.853 278.704 531.842 278 531.688ZM234 531.375C236.132 531.263 238.284 531.478 240.312 532.156C244.892 533.686 248.334 537.205 251.906 540.344C248.803 542.443 245.603 544.336 242.062 545.594C239.069 546.657 235.658 547.375 232.469 547C226.715 546.324 224.281 537.875 227.812 533.688C229.369 531.842 231.708 531.496 234 531.375Z" fill="#ff9d00" stroke="none"/>
</g>
<path d="M247.17 541.185C247.07 537.212 250.21 533.91 254.183 533.81C258.157 533.711 261.458 536.851 261.558 540.824C261.658 544.797 258.518 548.099 254.544 548.199C250.571 548.299 247.269 545.159 247.17 541.185Z" fill="#ff9d00" fill-rule="nonzero" opacity="1" stroke="#ffdb00" stroke-linecap="butt" stroke-linejoin="round" stroke-width="2.91505" vectornator:layerName="Óvalo 4"/>
<path d="M253.853 508.344C253.853 494.987 264.682 484.159 278.039 484.159C291.396 484.159 302.224 494.987 302.224 508.344C302.224 521.701 291.396 532.529 278.039 532.529C264.682 532.529 253.853 521.701 253.853 508.344Z" fill="#00f6ff" fill-opacity="0.199877" fill-rule="nonzero" opacity="1" stroke="#25acb6" stroke-linecap="butt" stroke-linejoin="round" stroke-width="8.9935" vectornator:layerName="Óvalo 5"/>
<path d="M305.059 518.02C310.324 520.276 322.538 524.663 322.538 524.663" fill="none" opacity="1" stroke="#25acb6" stroke-linecap="round" stroke-linejoin="round" stroke-width="8.9935" vectornator:layerName="Curva 4"/>
</g>
<g opacity="1" vectornator:layerName="Grupo 12">
<path d="M176.955 281.841C168.18 309.385 175.087 338.17 192.693 358.554C202.02 369.352 214.35 377.793 228.942 382.442C271.077 395.866 316.118 372.591 329.542 330.455C342.966 288.32 319.691 243.279 277.556 229.855C235.42 216.43 190.38 239.705 176.955 281.841Z" fill="none" opacity="1" stroke="#0099a2" stroke-linecap="butt" stroke-linejoin="round" stroke-width="14.0427" vectornator:layerName="Óvalo 1"/>
<g opacity="1" vectornator:layerName="Curva 1">
<path d="M296.906 331.062C296.454 330.989 295.964 331.086 295.562 331.375C283.886 339.806 270.722 346.718 256.062 347.531C251.019 347.811 245.97 347.39 241.031 346.344C230.907 344.199 221.562 339.612 212.75 334.312C211.947 333.83 210.92 334.072 210.438 334.875C209.955 335.678 210.197 336.736 211 337.219C220.646 343.026 230.944 347.987 242.094 350.062C246.762 350.931 251.507 351.277 256.25 351.031C271.611 350.235 285.411 343.107 297.656 334.281C298.459 333.702 298.641 332.584 298.062 331.781C297.773 331.38 297.359 331.136 296.906 331.062Z" fill="#0099a2" stroke="none"/>
</g>
<path d="M273.815 229.348C253.705 222.032 227.492 233.348 228.165 257.129C228.645 274.099 240.527 281.756 251.651 282.79C264.459 283.979 275.372 274.089 275.119 262.594C274.835 249.715 261.654 242.245 251.361 248.141C243.77 252.489 243.361 263.218 249.766 268.292C256.821 273.881 264.62 267.839 261.944 261.914" fill="none" opacity="1" stroke="#0099a2" stroke-linecap="round" stroke-linejoin="round" stroke-width="6.84131" vectornator:layerName="Curva 2"/>
<path d="M221.356 313.19C221.356 307.96 224.493 303.719 228.362 303.719C232.232 303.719 235.369 307.96 235.369 313.19C235.369 318.421 232.232 322.661 228.362 322.661C224.493 322.661 221.356 318.421 221.356 313.19Z" fill="#0099a2" fill-rule="nonzero" opacity="1" stroke="none" vectornator:layerName="Óvalo 2"/>
<path d="M271.055 313.19C271.055 307.96 274.192 303.719 278.061 303.719C281.931 303.719 285.068 307.96 285.068 313.19C285.068 318.421 281.931 322.661 278.061 322.661C274.192 322.661 271.055 318.421 271.055 313.19Z" fill="#0099a2" fill-rule="nonzero" opacity="1" stroke="none" vectornator:layerName="Óvalo 3"/>
<g opacity="1" vectornator:layerName="Grupo 8">
<g opacity="1" vectornator:layerName="Curva 3">
<path d="M267.915 340.352C259.267 339.843 250.337 354.895 237.158 354.299C230.31 353.99 228.696 342.112 236.22 340.988C250.36 338.876 250.146 354.366 268.296 353.748C274.112 353.55 276.102 340.834 267.915 340.352Z" fill="#ffdb00" fill-rule="nonzero" stroke="none"/>
<path d="M268.062 338.812C267.966 338.804 267.906 338.898 267.812 338.906C265.118 339.205 265.824 338.973 264.812 339.25C260.98 340.298 257.726 342.973 254.594 345.281C254.036 345.692 253.446 346.088 252.875 346.5C250.12 344.128 247.48 341.593 244.031 340.25C241.769 339.369 239.343 339.123 236.938 339.375C234.166 339.665 231.707 340.9 230.5 343.531C230.11 344.382 229.901 345.32 229.812 346.25C229.724 347.177 229.757 348.119 229.938 349.031C230.179 350.253 230.678 351.435 231.375 352.469C234.884 357.679 242.187 355.839 246.938 353.625C247.432 353.395 247.924 353.162 248.406 352.906C249.374 352.393 250.265 351.839 251.188 351.25C251.667 350.944 252.124 350.602 252.594 350.281C256.635 353.34 260.915 355.072 266.062 355.281C266.98 355.318 267.93 355.363 268.844 355.25C271.261 354.952 273.086 353.046 274.031 350.906C275.543 347.485 274.605 349.155 271.312 344.375C272.277 346.69 271.665 350.012 269.875 351.531C268.834 352.415 267.477 352.27 266.188 352.219C265.591 352.195 264.907 352.133 264.312 352.062C261.279 351.704 258.434 350.637 255.875 348.969C255.639 348.815 255.448 348.601 255.219 348.438C256.76 347.31 258.271 346.177 259.844 345.094C261.58 343.898 260.034 344.99 267.719 341.875C267.743 341.878 267.757 341.904 267.781 341.906C270.357 342.975 270.037 342.525 270.5 343C270.097 342.36 269.682 341.624 269.219 340.781C269.268 340.64 269.371 340.532 269.375 340.375C269.392 339.651 268.844 339.104 268.156 338.969C268.12 338.895 268.099 338.887 268.062 338.812ZM270.5 343C270.751 343.399 271.085 344.044 271.312 344.375C271.121 343.915 270.955 343.445 270.625 343.094C270.548 343.012 270.551 343.053 270.5 343ZM238 342.312C239.488 342.235 240.99 342.401 242.406 342.875C245.483 343.905 247.827 346.177 250.219 348.312C246.286 350.899 242.029 353.008 237.219 352.812C233.264 352.652 231.503 346.982 233.656 344.062C234.69 342.66 236.359 342.398 238 342.312Z" fill="#ff9d00" stroke="none"/>
</g>
<path d="M247.485 348.997C247.413 346.126 249.682 343.739 252.554 343.667C255.426 343.595 257.812 345.865 257.884 348.736C257.956 351.608 255.687 353.994 252.815 354.066C249.943 354.139 247.557 351.869 247.485 348.997Z" fill="#ff9d00" fill-rule="nonzero" opacity="1" stroke="#ffdb00" stroke-linecap="butt" stroke-linejoin="round" stroke-width="2.91505" vectornator:layerName="Óvalo 4"/>
</g>
<path d="M208.383 338.128C207.753 338.758 209.463 336.661 209.802 336.322C211.193 334.931 211.301 333.324 212.124 331.678" fill="none" opacity="1" stroke="#0099a2" stroke-linecap="round" stroke-linejoin="round" stroke-width="2.91505" vectornator:layerName="Curva 5"/>
<path d="M295.938 330.211C295.575 329.397 296.921 331.744 297.116 332.182C297.917 333.979 299.379 334.655 300.621 336.013" fill="none" opacity="1" stroke="#0099a2" stroke-linecap="round" stroke-linejoin="round" stroke-width="2.91505" vectornator:layerName="Curva 6"/>
<g opacity="1" vectornator:layerName="Grupo 9">
<path d="M253.853 312.349C253.853 298.992 264.682 288.164 278.039 288.164C291.396 288.164 302.224 298.992 302.224 312.349C302.224 325.706 291.396 336.534 278.039 336.534C264.682 336.534 253.853 325.706 253.853 312.349Z" fill="#00f6ff" fill-opacity="0.199877" fill-rule="nonzero" opacity="1" stroke="#25acb6" stroke-linecap="butt" stroke-linejoin="round" stroke-width="7.5" vectornator:layerName="Óvalo 5"/>
<path d="M305.059 322.025C310.324 324.281 322.538 328.668 322.538 328.668" fill="none" opacity="1" stroke="#25acb6" stroke-linecap="round" stroke-linejoin="round" stroke-width="7.5" vectornator:layerName="Curva 4"/>
</g>
</g>
</g>
<g id="Capa-2" vectornator:layerName="Capa 2">
<g opacity="1" vectornator:layerName="Grupo 13">
<path d="M333.912 242.204C325.137 269.748 332.044 298.533 349.65 318.917C358.977 329.715 371.307 338.156 385.899 342.805C428.034 356.229 473.075 332.954 486.499 290.818C499.924 248.682 476.649 203.642 434.513 190.218C392.377 176.793 347.337 200.068 333.912 242.204Z" fill="none" opacity="1" stroke="#0099a2" stroke-linecap="butt" stroke-linejoin="round" stroke-width="14.0427" vectornator:layerName="Óvalo 1"/>
<g opacity="1" vectornator:layerName="Curva 1">
<path d="M453.844 291.406C453.391 291.333 452.932 291.461 452.531 291.75C440.855 300.181 427.691 307.093 413.031 307.906C407.988 308.186 402.908 307.734 397.969 306.688C387.844 304.542 378.53 299.956 369.719 294.656C368.916 294.173 367.858 294.447 367.375 295.25C366.892 296.053 367.166 297.08 367.969 297.562C377.615 303.37 387.881 308.331 399.031 310.406C403.699 311.275 408.475 311.621 413.219 311.375C428.58 310.579 442.379 303.451 454.625 294.625C455.427 294.046 455.61 292.927 455.031 292.125C454.742 291.724 454.296 291.48 453.844 291.406Z" fill="#0099a2" stroke="none"/>
</g>
<path d="M430.772 189.711C410.662 182.394 384.449 193.711 385.122 217.492C385.602 234.462 397.484 242.119 408.608 243.153C421.416 244.342 432.33 234.452 432.076 222.957C431.792 210.078 418.611 202.608 408.318 208.504C400.727 212.852 400.318 223.581 406.723 228.655C413.778 234.244 421.577 228.202 418.901 222.276" fill="none" opacity="1" stroke="#0099a2" stroke-linecap="round" stroke-linejoin="round" stroke-width="6.84131" vectornator:layerName="Curva 2"/>
<path d="M378.313 273.553C378.313 268.322 381.45 264.082 385.32 264.082C389.189 264.082 392.326 268.322 392.326 273.553C392.326 278.784 389.189 283.024 385.32 283.024C381.45 283.024 378.313 278.784 378.313 273.553Z" fill="#0099a2" fill-rule="nonzero" opacity="1" stroke="none" vectornator:layerName="Óvalo 2"/>
<path d="M428.012 273.553C428.012 268.322 431.149 264.082 435.018 264.082C438.888 264.082 442.025 268.322 442.025 273.553C442.025 278.784 438.888 283.024 435.018 283.024C431.149 283.024 428.012 278.784 428.012 273.553Z" fill="#0099a2" fill-rule="nonzero" opacity="1" stroke="none" vectornator:layerName="Óvalo 3"/>
<path d="M365.34 298.491C364.71 299.121 366.42 297.024 366.759 296.685C368.15 295.294 368.258 293.687 369.081 292.041" fill="none" opacity="1" stroke="#0099a2" stroke-linecap="round" stroke-linejoin="round" stroke-width="2.91505" vectornator:layerName="Curva 5"/>
<path d="M452.895 290.574C452.532 289.76 453.878 292.106 454.073 292.545C454.874 294.341 456.336 295.018 457.579 296.376" fill="none" opacity="1" stroke="#0099a2" stroke-linecap="round" stroke-linejoin="round" stroke-width="2.91505" vectornator:layerName="Curva 6"/>
<g opacity="1" vectornator:layerName="Grupo 11">
<path d="M393.767 297.532C391.711 297.512 389.744 297.918 388.025 299.028C381.189 303.44 386.417 328.718 409.816 329.026C409.959 329.028 410.085 329.058 410.23 329.058C410.358 329.058 410.469 329.028 410.595 329.026C433.994 328.718 439.222 303.44 432.387 299.028C425.516 294.592 414.662 301.447 410.214 301.461C410.209 301.461 410.202 301.461 410.198 301.461C406.863 301.451 399.925 297.594 393.767 297.532Z" fill="#ff9d00" fill-rule="nonzero" opacity="1" stroke="none" vectornator:layerName="Curva 1"/>
<path d="M401.359 315.518C401.236 310.607 405.117 306.526 410.028 306.402C414.939 306.279 419.02 310.16 419.143 315.071C419.266 319.982 415.385 324.063 410.474 324.186C405.563 324.31 401.482 320.428 401.359 315.518Z" fill="#ffdb00" fill-rule="nonzero" opacity="1" stroke="none" vectornator:layerName="Óvalo 4"/>
<path d="M395.594 312.985C395.285 312.775 424.714 312.121 424.892 312.032C425.156 322.524 422.568 332.126 410.564 332.126C398.559 332.126 395.857 323.478 395.594 312.985Z" fill="none" opacity="1" stroke="#ffdb00" stroke-linecap="butt" stroke-linejoin="round" stroke-width="3.5" vectornator:layerName="Óvalo 5"/>
</g>
<g opacity="1" vectornator:layerName="Grupo 9">
<path d="M410.811 272.712C410.811 259.355 421.639 248.527 434.996 248.527C448.353 248.527 459.181 259.355 459.181 272.712C459.181 286.069 448.353 296.897 434.996 296.897C421.639 296.897 410.811 286.069 410.811 272.712Z" fill="#00f6ff" fill-opacity="0.199877" fill-rule="nonzero" opacity="1" stroke="#25acb6" stroke-linecap="butt" stroke-linejoin="round" stroke-width="7.5" vectornator:layerName="Óvalo 5"/>
<path d="M462.016 282.387C467.281 284.644 479.495 289.031 479.495 289.031" fill="none" opacity="1" stroke="#25acb6" stroke-linecap="round" stroke-linejoin="round" stroke-width="7.5" vectornator:layerName="Curva 4"/>
</g>
</g>
<g fill="#ff9d00" opacity="1" stroke="none" vectornator:layerName="Text 1">
<path d="M239.633 374.14C244.25 374.14 247.698 375.131 249.976 377.113C252.255 379.095 253.394 381.904 253.394 385.541C253.394 387.462 252.985 389.173 252.168 390.675C251.35 392.177 250.36 393.326 249.195 394.123C253.526 395.717 255.692 399.119 255.692 404.329C255.692 406.944 255.187 409.13 254.175 410.888C253.164 412.645 251.524 413.988 249.256 414.918C246.988 415.847 243.985 416.312 240.246 416.312L222.163 416.312L222.745 409.355L222.745 381.189L222.102 374.14L239.633 374.14ZM236.874 390.813C239.306 390.813 241.165 390.476 242.452 389.801C243.739 389.127 244.383 387.83 244.383 385.909C244.383 384.622 244.092 383.641 243.51 382.967C242.927 382.293 242.1 381.833 241.027 381.588C239.954 381.343 238.55 381.22 236.813 381.22L231.725 381.22L231.725 390.813L236.874 390.813ZM240.031 409.233C244.24 409.233 246.345 407.373 246.345 403.655C246.345 402.102 246.007 400.906 245.333 400.069C244.659 399.231 243.734 398.664 242.56 398.368C241.385 398.071 239.919 397.923 238.161 397.923L231.725 397.923L231.725 409.233L240.031 409.233Z"/>
<path d="M287.628 402.214C287.628 404.033 287.699 405.488 287.842 406.581C287.985 407.675 288.266 408.507 288.685 409.079C289.104 409.651 289.712 409.937 290.509 409.937C291.347 409.937 292.251 409.733 293.221 409.324C294.192 408.916 294.892 408.528 295.321 408.16L297.159 412.481C296.015 413.83 294.605 414.933 292.93 415.791C291.255 416.649 289.579 417.078 287.904 417.078C283.858 417.078 281.192 415.291 279.904 411.715C278.903 413.268 277.682 414.53 276.242 415.5C274.802 416.471 273.131 416.997 271.231 417.078C270.986 417.099 270.618 417.109 270.128 417.109C265.816 417.109 262.89 415.413 261.347 412.022C259.804 408.63 259.033 404.758 259.033 400.406C259.033 395.4 259.978 391.436 261.868 388.514C263.758 385.592 266.899 384.132 271.292 384.132C272.661 384.132 274.061 384.443 275.491 385.066C276.921 385.689 278.076 386.4 278.954 387.196L278.954 384.53L287.628 385.357L287.628 402.214ZM278.954 393.847C277.361 392.151 275.532 391.303 273.468 391.303C271.997 391.303 270.833 391.834 269.974 392.897C269.116 393.959 268.519 395.216 268.181 396.667C267.844 398.117 267.676 399.527 267.676 400.896C267.717 403.266 268.151 405.289 268.978 406.965C269.806 408.64 271.047 409.57 272.702 409.754L273.131 409.784C274.255 409.784 275.348 409.427 276.411 408.711C277.473 407.996 278.321 407.118 278.954 406.076L278.954 393.847Z"/>
<path d="M306.722 373.466L306.722 388.392C307.437 387.431 308.499 386.481 309.909 385.541C311.319 384.601 313.015 384.132 314.997 384.132C318.92 384.132 321.739 385.363 323.456 387.825C325.172 390.287 326.204 393.367 326.551 397.065C326.633 397.882 326.674 398.792 326.674 399.793L326.674 400.835C326.674 411.664 322.587 417.078 314.414 417.078C312.923 417.078 311.61 416.864 310.476 416.435C309.342 416.006 308.438 415.536 307.764 415.025C307.09 414.514 306.752 414.228 306.752 414.167L306.752 416.312L298.079 416.312L298.079 374.263L306.722 373.466ZM306.722 408.436C306.722 408.477 306.987 408.625 307.519 408.88C308.05 409.135 308.724 409.376 309.541 409.6C310.359 409.825 311.258 409.937 312.238 409.937C313.648 409.937 314.782 409.422 315.64 408.39C316.499 407.358 317.106 406.106 317.464 404.635C317.822 403.164 318 401.703 318 400.253C318 398.536 317.77 397.004 317.311 395.655C316.851 394.307 316.223 393.249 315.426 392.483C314.629 391.717 313.74 391.334 312.759 391.334C311.554 391.334 310.354 391.681 309.158 392.376C307.963 393.071 307.151 393.898 306.722 394.858L306.722 408.436Z"/>
<path d="M339.853 402.337C339.853 404.257 340.006 405.764 340.312 406.857C340.619 407.95 341.135 408.742 341.86 409.233C342.585 409.723 343.602 409.968 344.91 409.968C345.931 409.968 346.876 409.764 347.745 409.355C348.613 408.946 349.333 408.497 349.905 408.007C350.477 407.516 350.763 407.24 350.763 407.179L350.763 384.898L359.406 384.898L359.406 414.014C359.406 416.588 358.941 419.02 358.012 421.308C357.082 423.596 355.611 425.461 353.598 426.901C351.586 428.342 349.047 429.062 345.982 429.062C345.553 429.062 344.869 429.021 343.929 428.939C342.56 428.837 341.216 428.623 339.899 428.296C338.581 427.969 337.656 427.673 337.125 427.407L337.125 421.645C337.636 421.952 338.489 422.217 339.684 422.442C340.879 422.667 342.008 422.779 343.071 422.779C345.236 422.779 347.04 422.176 348.48 420.971C349.921 419.765 350.661 417.773 350.702 414.994L350.763 413.401C349.803 414.381 348.562 415.245 347.04 415.99C345.517 416.736 343.694 417.109 341.569 417.109C337.85 417.109 335.184 416.021 333.57 413.845C331.956 411.669 331.148 408.466 331.148 404.237L331.148 384.499L339.853 385.357L339.853 402.337Z"/>
<path d="M397.41 374.14L396.766 381.22L376.355 381.22L376.355 392.56L392.169 392.56L391.526 399.67L376.355 399.67L376.355 416.312L367.405 416.312L367.405 381.22L366.792 374.14L397.41 374.14Z"/>
<path d="M421.009 391.702C420.151 391.375 419.385 391.124 418.711 390.951C418.036 390.777 417.219 390.69 416.259 390.69C415.012 390.69 413.787 390.997 412.581 391.61C411.376 392.223 410.39 393.035 409.623 394.046C408.857 395.058 408.474 396.125 408.474 397.249L408.474 416.312L399.831 416.312L399.831 385.327L408.474 384.499L408.474 389.035C409.414 387.605 410.686 386.43 412.29 385.511C413.894 384.591 415.748 384.132 417.853 384.132C418.833 384.132 419.737 384.254 420.565 384.499C421.392 384.745 421.929 384.949 422.174 385.112L421.009 391.702Z"/>
<path d="M425.116 376.837C425.116 375.632 425.571 374.682 426.48 373.987C427.389 373.292 428.671 372.945 430.326 372.945C431.941 372.945 433.197 373.287 434.096 373.972C434.995 374.656 435.445 375.611 435.445 376.837C435.445 378.022 434.995 378.962 434.096 379.657C433.197 380.352 431.941 380.699 430.326 380.699C428.671 380.699 427.389 380.357 426.48 379.672C425.571 378.988 425.116 378.043 425.116 376.837ZM434.74 402.214C434.74 404.033 434.811 405.488 434.954 406.581C435.097 407.675 435.378 408.507 435.797 409.079C436.216 409.651 436.824 409.937 437.621 409.937C438.458 409.937 439.357 409.733 440.318 409.324C441.278 408.916 441.973 408.528 442.402 408.16L444.241 412.481C443.117 413.83 441.717 414.933 440.042 415.791C438.366 416.649 436.691 417.078 435.016 417.078C432.564 417.078 430.679 416.476 429.361 415.27C428.043 414.065 427.165 412.553 426.725 410.734C426.286 408.916 426.066 406.832 426.066 404.482L426.066 391.395L423.032 391.395L423.032 384.898L426.71 384.898L434.74 384.07L434.74 402.214Z"/>
<path d="M452.669 403.685C452.649 406.096 453.231 407.761 454.416 408.681C455.601 409.6 457.287 410.06 459.473 410.06C460.372 410.06 461.22 410.019 462.017 409.937C463.692 409.733 465.47 409.335 467.35 408.742C469.229 408.15 470.762 407.618 471.947 407.148L473.265 412.451C472.631 413.023 471.553 413.671 470.031 414.397C468.509 415.122 466.752 415.75 464.76 416.282C462.768 416.813 460.77 417.078 458.768 417.078C455.09 417.078 452.153 416.466 449.957 415.24C447.76 414.014 446.177 412.159 445.206 409.677C444.236 407.194 443.75 403.981 443.75 400.038C443.75 396.401 444.241 393.423 445.221 391.104C446.202 388.785 447.801 387.048 450.018 385.894C452.235 384.739 455.192 384.162 458.891 384.162C463.079 384.162 466.42 385.087 468.913 386.936C471.405 388.785 472.754 391.681 472.958 395.625C472.999 396.095 473.02 396.779 473.02 397.678C473.02 398.781 472.979 399.803 472.897 400.743C472.815 401.683 472.754 402.275 472.713 402.521L452.669 403.685ZM464.499 396.667C464.52 396.483 464.53 396.207 464.53 395.839C464.53 392.57 462.609 390.935 458.768 390.935C456.868 390.935 455.407 391.446 454.385 392.468C453.364 393.489 452.781 395.042 452.638 397.126L464.499 396.667Z"/>
<path d="M497.875 399.333C497.875 396.575 497.497 394.542 496.741 393.234C495.985 391.926 494.667 391.273 492.788 391.273C491.766 391.273 490.821 391.477 489.953 391.886C489.084 392.294 488.364 392.744 487.792 393.234C487.22 393.724 486.934 394 486.934 394.062L486.934 416.312L478.291 416.312L478.291 385.357L486.934 384.53L486.934 388.361C486.934 388.218 487.404 387.784 488.344 387.058C489.284 386.333 490.438 385.664 491.807 385.051C493.176 384.438 494.616 384.132 496.128 384.132C499.847 384.132 502.513 385.22 504.128 387.396C505.742 389.572 506.549 392.774 506.549 397.004L506.549 402.919C506.569 404.717 506.651 406.106 506.794 407.087C506.937 408.068 507.208 408.788 507.606 409.248C508.005 409.708 508.602 409.937 509.399 409.937C510.175 409.937 510.896 409.759 511.56 409.401C512.224 409.044 512.719 408.681 513.046 408.313L514.885 412.634C514.885 412.716 514.482 413.15 513.674 413.937C512.867 414.724 511.851 415.444 510.625 416.098C509.399 416.752 508.051 417.078 506.579 417.078C503.249 417.078 500.966 416.021 499.73 413.906C498.493 411.792 497.875 409.049 497.875 405.677L497.875 399.333Z"/>
<path d="M526.378 417.078C526.133 417.099 525.765 417.109 525.275 417.109C520.964 417.109 518.037 415.413 516.494 412.022C514.952 408.63 514.18 404.758 514.18 400.406C514.18 395.4 515.125 391.436 517.015 388.514C518.905 385.592 522.047 384.132 526.44 384.132C527.829 384.132 529.218 384.433 530.608 385.036C531.997 385.638 533.162 386.359 534.102 387.196L534.102 374.263L542.775 373.497L542.775 402.95C542.795 405.381 543.005 407.154 543.403 408.267C543.802 409.381 544.553 409.937 545.656 409.937C546.494 409.937 547.449 409.708 548.522 409.248C549.594 408.788 550.345 408.374 550.774 408.007L552.613 412.328C551.469 413.677 550.018 414.805 548.261 415.715C546.504 416.624 544.788 417.078 543.112 417.078C539.046 417.078 536.37 415.28 535.082 411.684C534.081 413.258 532.86 414.53 531.42 415.5C529.979 416.471 528.299 416.997 526.378 417.078ZM534.102 393.847C532.508 392.151 530.679 391.303 528.616 391.303C527.144 391.303 525.98 391.834 525.122 392.897C524.263 393.959 523.666 395.216 523.329 396.667C522.992 398.117 522.823 399.527 522.823 400.896C522.864 403.266 523.298 405.284 524.126 406.949C524.953 408.614 526.194 409.549 527.849 409.754L528.309 409.784C529.433 409.784 530.521 409.427 531.573 408.711C532.625 407.996 533.468 407.118 534.102 406.076L534.102 393.847Z"/>
<path d="M561.716 402.183C561.716 404.002 561.787 405.458 561.93 406.551C562.073 407.644 562.354 408.477 562.773 409.049C563.192 409.621 563.8 409.907 564.597 409.907C565.434 409.907 566.328 409.708 567.278 409.309C568.228 408.911 568.928 408.528 569.378 408.16L571.217 412.451C570.093 413.779 568.693 414.867 567.018 415.715C565.342 416.563 563.667 416.987 561.992 416.987C559.54 416.987 557.655 416.394 556.337 415.209C555.019 414.024 554.14 412.527 553.701 410.719C553.262 408.911 553.042 406.832 553.042 404.482L553.012 374.018L561.716 373.159L561.716 402.183Z"/>
<path d="M580.227 402.337C580.227 404.257 580.381 405.764 580.687 406.857C580.994 407.95 581.509 408.742 582.235 409.233C582.96 409.723 583.977 409.968 585.284 409.968C586.306 409.968 587.251 409.764 588.119 409.355C588.988 408.946 589.708 408.497 590.28 408.007C590.852 407.516 591.138 407.24 591.138 407.179L591.138 384.898L599.781 384.898L599.781 414.014C599.781 416.588 599.316 419.02 598.386 421.308C597.457 423.596 595.986 425.461 593.973 426.901C591.961 428.342 589.422 429.062 586.357 429.062C585.928 429.062 585.243 429.021 584.304 428.939C582.935 428.837 581.591 428.623 580.273 428.296C578.955 427.969 578.031 427.673 577.5 427.407L577.5 421.645C578.01 421.952 578.863 422.217 580.059 422.442C581.254 422.667 582.383 422.779 583.445 422.779C585.611 422.779 587.414 422.176 588.855 420.971C590.295 419.765 591.036 417.773 591.077 414.994L591.138 413.401C590.178 414.381 588.937 415.245 587.414 415.99C585.892 416.736 584.069 417.109 581.944 417.109C578.225 417.109 575.559 416.021 573.944 413.845C572.33 411.669 571.523 408.466 571.523 404.237L571.523 384.499L580.227 385.357L580.227 402.337Z"/>
</g>
</g>
</svg>
